<svg id="logosandtypes_com" data-name="logosandtypes com" xmlns="http://www.w3.org/2000/svg" xmlns:xlink="http://www.w3.org/1999/xlink" viewBox="0 0 150 150"><defs><style>.cls-1{fill:none;}.cls-2{fill:url(#linear-gradient);}.cls-3{fill:url(#linear-gradient-2);}.cls-4{fill:#0050ff;}</style><linearGradient id="linear-gradient" x1="87.93" y1="90.2" x2="57.79" y2="90.2" gradientTransform="matrix(1, 0, 0, -1, 0, 152)" gradientUnits="userSpaceOnUse"><stop offset="0" stop-color="#0050ff"/><stop offset="1" stop-color="#053ba8"/></linearGradient><linearGradient id="linear-gradient-2" x1="59.89" y1="72.68" x2="92.43" y2="33.18" xlink:href="#linear-gradient"/></defs><path class="cls-1" d="M0,0H150V150H0Z"/><path class="cls-2" d="M77.71,47h0c-13.49.09-31,10.38-14,29.69L96,76.5a16.52,16.52,0,0,0,14.23-8.26L122.53,47H77.71Z"/><path class="cls-3" d="M71.82,47c-26.45,0-43,28.63-29.75,51.54l25.35,43.93,12.34-21.37a16.54,16.54,0,0,0,0-16.49l-16-27.9a34.66,34.66,0,0,1-3.06-6.83C56,54.77,68.05,47,77.71,47Z"/><path class="cls-4" d="M36,12a16.53,16.53,0,0,0-14.31,8.26L9.29,41.71H116a16.52,16.52,0,0,0,14.31-8.27L142.71,12H36Z"/></svg>